<svg version="1.1" viewBox="0.0 0.0 452.8582677165354 509.01049868766404" fill="none" stroke="none" stroke-linecap="square" stroke-miterlimit="10" xmlns:xlink="http://www.w3.org/1999/xlink" xmlns="http://www.w3.org/2000/svg"><clipPath id="p.0"><path d="m0 0l452.85828 0l0 509.0105l-452.85828 0l0 -509.0105z" clip-rule="nonzero"/></clipPath><g clip-path="url(#p.0)"><path fill="#000000" fill-opacity="0.0" d="m0 0l452.85828 0l0 509.0105l-452.85828 0z" fill-rule="evenodd"/><path fill="#ff9900" d="m21.73491 42.753754l0 0c0 -13.023165 10.557358 -23.580524 23.580524 -23.580524l355.7996 0c6.253937 0 12.2517395 2.4843693 16.67395 6.9065742c4.4222107 4.422207 6.906555 10.420006 6.906555 16.67395l0 94.31926c0 13.023163 -10.557343 23.580536 -23.580505 23.580536l-355.7996 0c-13.023167 0 -23.580524 -10.557373 -23.580524 -23.580536z" fill-rule="evenodd"/><path stroke="#000000" stroke-width="1.0" stroke-linejoin="round" stroke-linecap="butt" d="m21.73491 42.753754l0 0c0 -13.023165 10.557358 -23.580524 23.580524 -23.580524l355.7996 0c6.253937 0 12.2517395 2.4843693 16.67395 6.9065742c4.4222107 4.422207 6.906555 10.420006 6.906555 16.67395l0 94.31926c0 13.023163 -10.557343 23.580536 -23.580505 23.580536l-355.7996 0c-13.023167 0 -23.580524 -10.557373 -23.580524 -23.580536z" fill-rule="evenodd"/><path fill="#000000" d="m48.295826 80.71901l7.25 0l0 4.0625q3.890625 -4.734375 9.265629 -4.734375q2.84375 0 4.9375 1.1875q2.109375 1.171875 3.453125 3.546875q1.96875 -2.375 4.234375 -3.546875q2.265625 -1.1875 4.84375 -1.1875q3.265625 0 5.53125 1.34375q2.265625 1.328125 3.390625 3.890625q0.8125 1.90625 0.8125 6.171875l0 19.0l-7.859375 0l0 -16.984375q0 -4.4375 -0.8125 -5.71875q-1.09375 -1.671875 -3.359375 -1.671875q-1.65625 0 -3.109375 1.015625q-1.453125 1.0 -2.109375 2.953125q-0.640625 1.9375 -0.640625 6.125l0 14.28125l-7.859375 0l0 -16.296875q0 -4.328125 -0.421875 -5.59375q-0.421875 -1.265625 -1.3125 -1.875q-0.8750038 -0.609375 -2.3750038 -0.609375q-1.828125 0 -3.28125 0.984375q-1.453125 0.96875 -2.09375 2.8125q-0.625 1.84375 -0.625 6.140625l0 14.4375l-7.859375 0l0 -29.734375zm57.442646 9.078125l-7.140625 -1.296875q1.203125 -4.296875 4.140625 -6.375q2.9375 -2.078125 8.734375 -2.078125q5.265625 0 7.828125 1.25q2.578125 1.25 3.625 3.171875q1.0625 1.90625 1.0625 7.03125l-0.09375 9.1875q0 3.921875 0.375 5.78125q0.390625 1.859375 1.421875 3.984375l-7.78125 0q-0.3125 -0.78125 -0.75 -2.328125q-0.203125 -0.6875 -0.28125 -0.921875q-2.015625 1.96875 -4.3125 2.953125q-2.296875 0.96875 -4.90625 0.96875q-4.59375 0 -7.234375 -2.484375q-2.640625 -2.5 -2.640625 -6.3125q0 -2.515625 1.203125 -4.484375q1.203125 -1.96875 3.375 -3.015625q2.171875 -1.0625 6.25 -1.84375q5.515625 -1.03125 7.640625 -1.9375l0 -0.78125q0 -2.265625 -1.125 -3.21875q-1.109375 -0.96875 -4.21875 -0.96875q-2.09375 0 -3.28125 0.828125q-1.171875 0.8125 -1.890625 2.890625zm10.515625 6.375q-1.515625 0.515625 -4.796875 1.21875q-3.265625 0.6875 -4.265625 1.359375q-1.546875 1.09375 -1.546875 2.78125q0 1.640625 1.234375 2.84375q1.234375 1.203125 3.140625 1.203125q2.125 0 4.046875 -1.390625q1.4375 -1.0625 1.875 -2.609375q0.3125 -1.0 0.3125 -3.828125l0 -1.578125zm41.398796 -6.65625l-7.75 1.40625q-0.390625 -2.328125 -1.78125 -3.5q-1.375 -1.1875 -3.59375 -1.1875q-2.9375 0 -4.6875 2.03125q-1.75 2.03125 -1.75 6.796875q0 5.28125 1.78125 7.46875q1.78125 2.1875 4.765625 2.1875q2.25 0 3.671875 -1.265625q1.421875 -1.28125 2.015625 -4.390625l7.71875 1.3125q-1.203125 5.3125 -4.625 8.03125q-3.40625 2.71875 -9.140625 2.71875q-6.515625 0 -10.40625 -4.109375q-3.875 -4.125 -3.875 -11.390625q0 -7.375 3.890625 -11.46875q3.890625 -4.109375 10.53125 -4.109375q5.421875 0 8.625 2.34375q3.21875 2.34375 4.609375 7.125zm13.492554 20.9375l-7.859375 0l0 -29.734375l7.296875 0l0 4.234375q1.875 -3.0 3.375 -3.953125q1.5 -0.953125 3.40625 -0.953125q2.6875 0 5.171875 1.484375l-2.421875 6.859375q-2.0 -1.28125 -3.703125 -1.28125q-1.65625 0 -2.8125 0.90625q-1.140625 0.90625 -1.796875 3.296875q-0.65625 2.375 -0.65625 9.953125l0 9.1875zm12.96608 -15.28125q0 -3.921875 1.921875 -7.578125q1.9375 -3.671875 5.46875 -5.609375q3.546875 -1.9375 7.921875 -1.9375q6.75 0 11.046875 4.390625q4.3125 4.375 4.3125 11.0625q0 6.75 -4.359375 11.1875q-4.34375 4.4375 -10.953125 4.4375q-4.078125 0 -7.796875 -1.84375q-3.703125 -1.84375 -5.640625 -5.40625q-1.921875 -3.578125 -1.921875 -8.703125zm8.0625 0.421875q0 4.421875 2.09375 6.78125q2.109375 2.34375 5.1875 2.34375q3.078125 0 5.15625 -2.34375q2.09375 -2.359375 2.09375 -6.84375q0 -4.359375 -2.09375 -6.703125q-2.078125 -2.359375 -5.15625 -2.359375q-3.078125 0 -5.1875 2.359375q-2.09375 2.34375 -2.09375 6.765625zm24.127686 26.203125l0 -5.09375l32.6875 0l0 5.09375l-32.6875 0zm44.05507 -11.34375l-7.8593903 0l0 -29.734375l7.2968903 0l0 4.234375q1.875 -3.0 3.375 -3.953125q1.5 -0.953125 3.40625 -0.953125q2.6875 0 5.171875 1.484375l-2.421875 6.859375q-2.0 -1.28125 -3.703125 -1.28125q-1.65625 0 -2.8125 0.90625q-1.140625 0.90625 -1.796875 3.296875q-0.65625 2.375 -0.65625 9.953125l0 9.1875zm34.35672 0l0 -4.453125q-1.625 2.375 -4.28125 3.75q-2.640625 1.375 -5.578125 1.375q-3.0000305 0 -5.3750305 -1.3125q-2.375 -1.3125 -3.4375 -3.6875q-1.0625 -2.390625 -1.0625 -6.59375l0 -18.8125l7.859375 0l0 13.671875q0 6.265625 0.4375 7.6875q0.4375 1.40625 1.5781555 2.234375q1.140625 0.828125 2.90625 0.828125q2.015625 0 3.609375 -1.109375q1.609375 -1.109375 2.1875 -2.75q0.59375 -1.640625 0.59375 -8.015625l0 -12.546875l7.859375 0l0 29.734375l-7.296875 0zm15.440186 0l0 -41.03125l7.875 0l0 41.03125l-7.875 0zm33.146362 -9.46875l7.84375 1.328125q-1.515625 4.3125 -4.78125 6.5625q-3.25 2.25 -8.15625 2.25q-7.75 0 -11.46875 -5.0625q-2.953125 -4.0625 -2.953125 -10.25q0 -7.390625 3.859375 -11.578125q3.875 -4.1875 9.78125 -4.1875q6.625 0 10.453125 4.390625q3.84375 4.375 3.6875 13.421875l-19.71875 0q0.09375 3.5 1.90625 5.453125q1.828125 1.9375 4.53125 1.9375q1.859375 0 3.109375 -1.0q1.265625 -1.015625 1.90625 -3.265625zm0.453125 -7.9375q-0.09375 -3.421875 -1.78125 -5.1875q-1.671875 -1.78125 -4.078125 -1.78125q-2.5625 0 -4.25 1.875q-1.671875 1.875 -1.65625 5.09375l11.765625 0zm11.445679 8.921875l7.890625 -1.203125q0.5 2.296875 2.046875 3.484375q1.546875 1.1875 4.3125 1.1875q3.046875 0 4.59375 -1.109375q1.03125 -0.796875 1.03125 -2.109375q0 -0.890625 -0.5625 -1.484375q-0.578125 -0.546875 -2.625 -1.03125q-9.515625 -2.09375 -12.0625 -3.828125q-3.53125 -2.40625 -3.53125 -6.703125q0 -3.859375 3.046875 -6.484375q3.046875 -2.640625 9.46875 -2.640625q6.09375 0 9.0625 2.0q2.96875 1.984375 4.09375 5.875l-7.421875 1.375q-0.484375 -1.734375 -1.8125 -2.65625q-1.328125 -0.9375 -3.78125 -0.9375q-3.109375 0 -4.453125 0.875q-0.90625 0.609375 -0.90625 1.59375q0 0.84375 0.796875 1.421875q1.0625 0.78125 7.34375 2.21875q6.28125 1.421875 8.78125 3.5q2.453125 2.09375 2.453125 5.84375q0 4.09375 -3.421875 7.03125q-3.40625 2.9375 -10.09375 2.9375q-6.078125 0 -9.625 -2.453125q-3.53125 -2.46875 -4.625 -6.703125z" fill-rule="nonzero"/><path fill="#000000" d="m392.20703 100.265884l-1.546875 -21.75l0 -9.09375l6.25 0l0 9.09375l-1.453125 21.75l-3.25 0zm-1.3125 10.1875l0 -5.734375l5.78125 0l0 5.734375l-5.78125 0z" fill-rule="nonzero"/><path fill="#f6b26b" d="m242.16011 173.28609l0 70.110245l18.94487 0l-37.889755 37.88977l-37.88977 -37.88977l18.944885 0l0 -70.110245z" fill-rule="evenodd"/><path stroke="#000000" stroke-width="1.0" stroke-linejoin="round" stroke-linecap="butt" d="m242.16011 173.28609l0 70.110245l18.94487 0l-37.889755 37.88977l-37.88977 -37.88977l18.944885 0l0 -70.110245z" fill-rule="evenodd"/><path fill="#ff9900" d="m21.73491 321.7671l0 0c0 -18.757782 15.206169 -33.96393 33.963932 -33.96393l335.03275 0c9.0078125 0 17.646667 3.578308 24.016144 9.947784c6.3694763 6.3694763 9.947784 15.008331 9.947784 24.016144l0 135.85165c0 18.757751 -15.206146 33.96393 -33.96393 33.96393l-335.03275 0c-18.757763 0 -33.963932 -15.206177 -33.963932 -33.96393z" fill-rule="evenodd"/><path stroke="#000000" stroke-width="1.0" stroke-linejoin="round" stroke-linecap="butt" d="m21.73491 321.7671l0 0c0 -18.757782 15.206169 -33.96393 33.963932 -33.96393l335.03275 0c9.0078125 0 17.646667 3.578308 24.016144 9.947784c6.3694763 6.3694763 9.947784 15.008331 9.947784 24.016144l0 135.85165c0 18.757751 -15.206146 33.96393 -33.96393 33.96393l-335.03275 0c-18.757763 0 -33.963932 -15.206177 -33.963932 -33.96393z" fill-rule="evenodd"/><path fill="#000000" d="m73.660904 326.13916l8.046875 2.546875q-1.859375 6.71875 -6.15625 9.984375q-4.296875 3.265625 -10.890625 3.265625q-8.187496 0 -13.453121 -5.578125q-5.25 -5.59375 -5.25 -15.28125q0 -10.25 5.28125 -15.90625q5.296875 -5.671875 13.921871 -5.671875q7.53125 0 12.234375 4.453125q2.796875 2.625 4.1875 7.546875l-8.203125 1.96875q-0.71875 -3.1875 -3.03125 -5.03125q-2.3125 -1.859375 -5.609375 -1.859375q-4.562496 0 -7.406246 3.28125q-2.84375 3.265625 -2.84375 10.609375q0 7.78125 2.796875 11.09375q2.796875 3.296875 7.281246 3.296875q3.3125 0 5.6875 -2.09375q2.375 -2.109375 3.40625 -6.625zm13.275543 -0.1875q0 -3.921875 1.921875 -7.578125q1.9375 -3.671875 5.46875 -5.609375q3.546875 -1.9375 7.921875 -1.9375q6.75 0 11.046875 4.390625q4.3125 4.375 4.3125 11.0625q0 6.75 -4.359375 11.1875q-4.34375 4.4375 -10.953125 4.4375q-4.078125 0 -7.796875 -1.84375q-3.703125 -1.84375 -5.640625 -5.40625q-1.921875 -3.578125 -1.921875 -8.703125zm8.0625 0.421875q0 4.421875 2.09375 6.78125q2.109375 2.34375 5.1875 2.34375q3.078125 0 5.15625 -2.34375q2.09375 -2.359375 2.09375 -6.84375q0 -4.359375 -2.09375 -6.703125q-2.078125 -2.359375 -5.15625 -2.359375q-3.078125 0 -5.1875 2.359375q-2.09375 2.34375 -2.09375 6.765625zm28.190186 -14.875l7.25 0l0 4.0625q3.890625 -4.734375 9.265625 -4.734375q2.84375 0 4.9375 1.1875q2.109375 1.171875 3.453125 3.546875q1.96875 -2.375 4.234375 -3.546875q2.265625 -1.1875 4.84375 -1.1875q3.265625 0 5.53125 1.34375q2.265625 1.328125 3.390625 3.890625q0.8125 1.90625 0.8125 6.171875l0 19.0l-7.859375 0l0 -16.984375q0 -4.4375 -0.8125 -5.71875q-1.09375 -1.671875 -3.359375 -1.671875q-1.65625 0 -3.109375 1.015625q-1.453125 1.0 -2.109375 2.953125q-0.640625 1.9375 -0.640625 6.125l0 14.28125l-7.859375 0l0 -16.296875q0 -4.328125 -0.421875 -5.59375q-0.421875 -1.265625 -1.3125 -1.875q-0.875 -0.609375 -2.375 -0.609375q-1.828125 0 -3.28125 0.984375q-1.453125 0.96875 -2.09375 2.8125q-0.625 1.84375 -0.625 6.140625l0 14.4375l-7.859375 0l0 -29.734375zm51.333267 0l7.328125 0l0 4.375q1.4375 -2.234375 3.859375 -3.640625q2.4375 -1.40625 5.40625 -1.40625q5.1875 0 8.796875 4.0625q3.609375 4.0625 3.609375 11.3125q0 7.453125 -3.640625 11.578125q-3.640625 4.125 -8.8125 4.125q-2.46875 0 -4.46875 -0.96875q-2.0 -0.984375 -4.21875 -3.375l0 14.984375l-7.859375 0l0 -41.046875zm7.78125 14.359375q0 5.015625 1.984375 7.40625q1.984375 2.390625 4.84375 2.390625q2.75 0 4.5625 -2.1875q1.828125 -2.203125 1.828125 -7.203125q0 -4.6875 -1.875 -6.953125q-1.875 -2.265625 -4.65625 -2.265625q-2.875 0 -4.78125 2.234375q-1.90625 2.21875 -1.90625 6.578125zm27.45581 -18.390625l0 -7.265625l7.875 0l0 7.265625l-7.875 0zm0 33.765625l0 -29.734375l7.875 0l0 29.734375l-7.875 0zm15.927597 0l0 -41.03125l7.875 0l0 41.03125l-7.875 0zm33.146347 -9.46875l7.84375 1.328125q-1.515625 4.3125 -4.78125 6.5625q-3.25 2.25 -8.15625 2.25q-7.75 0 -11.46875 -5.0625q-2.953125 -4.0625 -2.953125 -10.25q0 -7.390625 3.859375 -11.578125q3.875 -4.1875 9.78125 -4.1875q6.625 0 10.453125 4.390625q3.84375 4.375 3.6875 13.421875l-19.71875 0q0.09375 3.5 1.90625 5.453125q1.828125 1.9375 4.53125 1.9375q1.859375 0 3.109375 -1.0q1.265625 -1.015625 1.90625 -3.265625zm0.453125 -7.9375q-0.09375 -3.421875 -1.78125 -5.1875q-1.671875 -1.78125 -4.078125 -1.78125q-2.5625 0 -4.25 1.875q-1.671875 1.875 -1.65625 5.09375l11.765625 0zm43.77954 -12.328125l0 6.28125l-5.375 0l0 11.96875q0 3.640625 0.15625 4.25q0.15625 0.59375 0.6875 1.0q0.546875 0.390625 1.34375 0.390625q1.078125 0 3.15625 -0.765625l0.671875 6.109375q-2.75 1.171875 -6.21875 1.171875q-2.125 0 -3.828125 -0.703125q-1.703125 -0.71875 -2.515625 -1.84375q-0.796875 -1.140625 -1.09375 -3.078125q-0.25 -1.375 -0.25 -5.546875l0 -12.953125l-3.609375 0l0 -6.28125l3.609375 0l0 -5.90625l7.890625 -4.578125l0 10.484375l5.375 0zm5.4500732 -4.03125l0 -7.265625l7.875 0l0 7.265625l-7.875 0zm0 33.765625l0 -29.734375l7.875 0l0 29.734375l-7.875 0zm15.349487 -29.734375l7.25 0l0 4.0625q3.890625 -4.734375 9.265625 -4.734375q2.84375 0 4.9375 1.1875q2.109375 1.171875 3.453125 3.546875q1.96875 -2.375 4.234375 -3.546875q2.265625 -1.1875 4.84375 -1.1875q3.265625 0 5.53125 1.34375q2.265625 1.328125 3.390625 3.890625q0.8125 1.90625 0.8125 6.171875l0 19.0l-7.859375 0l0 -16.984375q0 -4.4375 -0.8125 -5.71875q-1.09375 -1.671875 -3.359375 -1.671875q-1.65625 0 -3.109375 1.015625q-1.453125 1.0 -2.109375 2.953125q-0.640625 1.9375 -0.640625 6.125l0 14.28125l-7.859375 0l0 -16.296875q0 -4.328125 -0.421875 -5.59375q-0.421875 -1.265625 -1.3125 -1.875q-0.875 -0.609375 -2.375 -0.609375q-1.828125 0 -3.28125 0.984375q-1.453125 0.96875 -2.09375 2.8125q-0.625 1.84375 -0.625 6.140625l0 14.4375l-7.859375 0l0 -29.734375zm68.77075 20.265625l7.84375 1.328125q-1.515625 4.3125 -4.78125 6.5625q-3.25 2.25 -8.15625 2.25q-7.75 0 -11.46875 -5.0625q-2.953125 -4.0625 -2.953125 -10.25q0 -7.390625 3.859375 -11.578125q3.875 -4.1875 9.78125 -4.1875q6.625 0 10.453125 4.390625q3.84375 4.375 3.6875 13.421875l-19.71875 0q0.09375 3.5 1.90625 5.453125q1.828125 1.9375 4.53125 1.9375q1.859375 0 3.109375 -1.0q1.265625 -1.015625 1.90625 -3.265625zm0.453125 -7.9375q-0.09375 -3.421875 -1.78125 -5.1875q-1.671875 -1.78125 -4.078125 -1.78125q-2.5625 0 -4.25 1.875q-1.671875 1.875 -1.65625 5.09375l11.765625 0z" fill-rule="nonzero"/><path fill="#000000" d="m186.34499 389.2954l-7.75 1.40625q-0.390625 -2.328125 -1.78125 -3.5q-1.375 -1.1875 -3.59375 -1.1875q-2.9375 0 -4.6875 2.03125q-1.75 2.03125 -1.75 6.796875q0 5.28125 1.78125 7.46875q1.78125 2.1875 4.765625 2.1875q2.25 0 3.671875 -1.265625q1.421875 -1.28125 2.015625 -4.390625l7.71875 1.3125q-1.203125 5.3125 -4.625 8.03125q-3.40625 2.71875 -9.140625 2.71875q-6.515625 0 -10.40625 -4.109375q-3.875 -4.125 -3.875 -11.390625q0 -7.375 3.890625 -11.46875q3.890625 -4.109375 10.53125 -4.109375q5.421875 0 8.625 2.34375q3.21875 2.34375 4.609375 7.125zm4.1488037 5.65625q0 -3.921875 1.921875 -7.578125q1.9375 -3.671875 5.46875 -5.609375q3.546875 -1.9375 7.921875 -1.9375q6.75 0 11.046875 4.390625q4.3125 4.375 4.3125 11.0625q0 6.75 -4.359375 11.1875q-4.34375 4.4375 -10.953125 4.4375q-4.078125 0 -7.796875 -1.84375q-3.703125 -1.84375 -5.640625 -5.40625q-1.921875 -3.578125 -1.921875 -8.703125zm8.0625 0.421875q0 4.421875 2.09375 6.78125q2.109375 2.34375 5.1875 2.34375q3.078125 0 5.15625 -2.34375q2.09375 -2.359375 2.09375 -6.84375q0 -4.359375 -2.09375 -6.703125q-2.078125 -2.359375 -5.15625 -2.359375q-3.078125 0 -5.1875 2.359375q-2.09375 2.34375 -2.09375 6.765625zm56.033936 14.859375l-7.296875 0l0 -4.359375q-1.828125 2.546875 -4.3125 3.796875q-2.46875 1.234375 -4.984375 1.234375q-5.125 0 -8.78125 -4.125q-3.65625 -4.125 -3.65625 -11.515625q0 -7.5625 3.5625 -11.5q3.5625 -3.9375 8.984375 -3.9375q4.984375 0 8.625 4.15625l0 -14.78125l7.859375 0l0 41.03125zm-20.984375 -15.5q0 4.75 1.3125 6.875q1.90625 3.078125 5.3125 3.078125q2.71875 0 4.625 -2.296875q1.90625 -2.3125 1.90625 -6.90625q0 -5.125 -1.859375 -7.375q-1.84375 -2.25 -4.71875 -2.25q-2.796875 0 -4.6875 2.21875q-1.890625 2.21875 -1.890625 6.65625zm45.955826 6.03125l7.84375 1.328125q-1.515625 4.3125 -4.78125 6.5625q-3.25 2.25 -8.15625 2.25q-7.75 0 -11.46875 -5.0625q-2.953125 -4.0625 -2.953125 -10.25q0 -7.390625 3.859375 -11.578125q3.875 -4.1875 9.78125 -4.1875q6.625 0 10.453125 4.390625q3.84375 4.375 3.6875 13.421875l-19.71875 0q0.09375 3.5 1.90625 5.453125q1.828125 1.9375 4.53125 1.9375q1.859375 0 3.109375 -1.0q1.265625 -1.015625 1.90625 -3.265625zm0.453125 -7.9375q-0.09375 -3.421875 -1.78125 -5.1875q-1.671875 -1.78125 -4.078125 -1.78125q-2.5625 0 -4.25 1.875q-1.671875 1.875 -1.65625 5.09375l11.765625 0z" fill-rule="nonzero"/><path fill="#000000" d="m80.0804 481.18604l8.984375 1.09375q0.21875 1.578125 1.03125 2.15625q1.125 0.84375 3.53125 0.84375q3.078125 0 4.609375 -0.921875q1.046875 -0.625 1.578125 -1.984375q0.359375 -0.984375 0.359375 -3.609375l0 -4.34375q-3.53125 4.8125 -8.90625 4.8125q-5.984375 0 -9.484375 -5.0625q-2.75 -4.0 -2.75 -9.96875q0 -7.46875 3.59375 -11.421875q3.609375 -3.953125 8.953125 -3.953125q5.515625 0 9.09375 4.84375l0 -4.171875l7.359375 0l0 26.6875q0 5.265625 -0.875 7.859375q-0.859375 2.609375 -2.421875 4.09375q-1.5625 1.484375 -4.1875 2.3125q-2.609375 0.84375 -6.609375 0.84375q-7.5625 0 -10.734375 -2.59375q-3.15625 -2.578125 -3.15625 -6.5625q0 -0.390625 0.03125 -0.953125zm7.015625 -17.4375q0 4.734375 1.828125 6.9375q1.84375 2.1875 4.53125 2.1875q2.890625 0 4.875 -2.25q1.984375 -2.25 1.984375 -6.671875q0 -4.625 -1.90625 -6.859375q-1.90625 -2.234375 -4.8125 -2.234375q-2.828125 0 -4.671875 2.203125q-1.828125 2.1875 -1.828125 6.6875zm45.940186 6.015625l7.84375 1.328125q-1.515625 4.3125 -4.78125 6.5625q-3.25 2.25 -8.15625 2.25q-7.75 0 -11.46875 -5.0625q-2.953125 -4.0625 -2.953125 -10.25q0 -7.390625 3.859375 -11.578125q3.875 -4.1875 9.78125 -4.1875q6.625 0 10.453125 4.390625q3.84375 4.375 3.6875 13.421875l-19.71875 0q0.09375 3.5 1.90625 5.453125q1.828125 1.9375 4.53125 1.9375q1.859375 0 3.109375 -1.0q1.265625 -1.015625 1.90625 -3.265625zm0.453125 -7.9375q-0.09375 -3.421875 -1.78125 -5.1875q-1.671875 -1.78125 -4.078125 -1.78125q-2.5625 0 -4.25 1.875q-1.671875 1.875 -1.65625 5.09375l11.765625 0zm41.25818 17.40625l-7.859375 0l0 -15.171875q0 -4.8125 -0.515625 -6.21875q-0.5 -1.421875 -1.640625 -2.203125q-1.125 -0.78125 -2.71875 -0.78125q-2.046875 0 -3.671875 1.125q-1.625 1.109375 -2.234375 2.953125q-0.59375 1.84375 -0.59375 6.828125l0 13.46875l-7.859375 0l0 -29.734375l7.296875 0l0 4.375q3.890625 -5.046875 9.796875 -5.046875q2.609375 0 4.765625 0.9375q2.15625 0.9375 3.25 2.40625q1.109375 1.453125 1.546875 3.296875q0.4375 1.84375 0.4375 5.296875l0 18.46875zm25.190186 -9.46875l7.84375 1.328125q-1.515625 4.3125 -4.78125 6.5625q-3.25 2.25 -8.15625 2.25q-7.75 0 -11.46875 -5.0625q-2.953125 -4.0625 -2.953125 -10.25q0 -7.390625 3.859375 -11.578125q3.875 -4.1875 9.78125 -4.1875q6.625 0 10.453125 4.390625q3.84375 4.375 3.6875 13.421875l-19.71875 0q0.09375 3.5 1.90625 5.453125q1.828125 1.9375 4.53125 1.9375q1.859375 0 3.109375 -1.0q1.265625 -1.015625 1.90625 -3.265625zm0.453125 -7.9375q-0.09375 -3.421875 -1.78125 -5.1875q-1.671875 -1.78125 -4.078125 -1.78125q-2.5625 0 -4.25 1.875q-1.671875 1.875 -1.65625 5.09375l11.765625 0zm21.742554 17.40625l-7.859375 0l0 -29.734375l7.296875 0l0 4.234375q1.875 -3.0 3.375 -3.953125q1.5 -0.953125 3.40625 -0.953125q2.6875 0 5.171875 1.484375l-2.421875 6.859375q-2.0 -1.28125 -3.703125 -1.28125q-1.65625 0 -2.8125 0.90625q-1.140625 0.90625 -1.796875 3.296875q-0.65625 2.375 -0.65625 9.953125l0 9.1875zm20.669205 -20.65625l-7.140625 -1.296875q1.203125 -4.296875 4.140625 -6.375q2.9375 -2.078125 8.734375 -2.078125q5.265625 0 7.828125 1.25q2.578125 1.25 3.625 3.171875q1.0625 1.90625 1.0625 7.03125l-0.09375 9.1875q0 3.921875 0.375 5.78125q0.390625 1.859375 1.421875 3.984375l-7.78125 0q-0.3125 -0.78125 -0.75 -2.328125q-0.203125 -0.6875 -0.28125 -0.921875q-2.015625 1.96875 -4.3125 2.953125q-2.296875 0.96875 -4.90625 0.96875q-4.59375 0 -7.234375 -2.484375q-2.640625 -2.5 -2.640625 -6.3125q0 -2.515625 1.203125 -4.484375q1.203125 -1.96875 3.375 -3.015625q2.171875 -1.0625 6.25 -1.84375q5.515625 -1.03125 7.640625 -1.9375l0 -0.78125q0 -2.265625 -1.125 -3.21875q-1.109375 -0.96875 -4.21875 -0.96875q-2.09375 0 -3.28125 0.828125q-1.171875 0.8125 -1.890625 2.890625zm10.515625 6.375q-1.515625 0.515625 -4.796875 1.21875q-3.265625 0.6875 -4.265625 1.359375q-1.546875 1.09375 -1.546875 2.78125q0 1.640625 1.234375 2.84375q1.234375 1.203125 3.140625 1.203125q2.125 0 4.046875 -1.390625q1.4375 -1.0625 1.875 -2.609375q0.3125 -1.0 0.3125 -3.828125l0 -1.578125zm29.117554 -15.453125l0 6.28125l-5.375 0l0 11.96875q0 3.640625 0.15625 4.25q0.15625 0.59375 0.6875 1.0q0.546875 0.390625 1.34375 0.390625q1.078125 0 3.15625 -0.765625l0.671875 6.109375q-2.75 1.171875 -6.21875 1.171875q-2.125 0 -3.828125 -0.703125q-1.703125 -0.71875 -2.515625 -1.84375q-0.796875 -1.140625 -1.09375 -3.078125q-0.25 -1.375 -0.25 -5.546875l0 -12.953125l-3.609375 0l0 -6.28125l3.609375 0l0 -5.90625l7.890625 -4.578125l0 10.484375l5.375 0zm5.4501038 -4.03125l0 -7.265625l7.875 0l0 7.265625l-7.875 0zm0 33.765625l0 -29.734375l7.875 0l0 29.734375l-7.875 0zm14.115112 -15.28125q0 -3.921875 1.921875 -7.578125q1.9375 -3.671875 5.46875 -5.609375q3.546875 -1.9375 7.921875 -1.9375q6.75 0 11.046875 4.390625q4.3125 4.375 4.3125 11.0625q0 6.75 -4.359375 11.1875q-4.34375 4.4375 -10.953125 4.4375q-4.078125 0 -7.796875 -1.84375q-3.703125 -1.84375 -5.640625 -5.40625q-1.921875 -3.578125 -1.921875 -8.703125zm8.0625 0.421875q0 4.421875 2.09375 6.78125q2.109375 2.34375 5.1875 2.34375q3.078125 0 5.15625 -2.34375q2.09375 -2.359375 2.09375 -6.84375q0 -4.359375 -2.09375 -6.703125q-2.078125 -2.359375 -5.15625 -2.359375q-3.078125 0 -5.1875 2.359375q-2.09375 2.34375 -2.09375 6.765625zm55.815155 14.859375l-7.859375 0l0 -15.171875q0 -4.8125 -0.515625 -6.21875q-0.5 -1.421875 -1.640625 -2.203125q-1.125 -0.78125 -2.71875 -0.78125q-2.046875 0 -3.671875 1.125q-1.625 1.109375 -2.234375 2.953125q-0.59375 1.84375 -0.59375 6.828125l0 13.46875l-7.859375 0l0 -29.734375l7.296875 0l0 4.375q3.890625 -5.046875 9.796875 -5.046875q2.609375 0 4.765625 0.9375q2.15625 0.9375 3.25 2.40625q1.109375 1.453125 1.546875 3.296875q0.4375 1.84375 0.4375 5.296875l0 18.46875z" fill-rule="nonzero"/></g></svg>